<?xml version="1.0" encoding="iso-8859-1"?>
<!-- Generator: Adobe Illustrator 19.0.0, SVG Export Plug-In . SVG Version: 6.00 Build 0)  -->
<svg version="1.1" id="Layer_1" xmlns="http://www.w3.org/2000/svg" xmlns:xlink="http://www.w3.org/1999/xlink" x="0px" y="0px"
	 viewBox="0 0 512 512" style="enable-background:new 0 0 512 512;" xml:space="preserve" width="25" height="25">
<path style="fill:#538489;" d="M202.957,264.695c-59.307-63.744-86.741-138.172-66.731-180.992l7.731-16.546L281.6,204.8
	l-69.606,69.606L202.957,264.695z"/>
<g>
	<path style="fill:#6FB0B6;" d="M143.812,67.106l16.35-7.799c9.199-4.386,19.9-6.613,31.787-6.613
		c43.614,0,100.966,28.083,149.692,73.293l9.737,9.037l-69.82,69.82L143.812,67.106z"/>
	<path style="fill:#6FB0B6;" d="M281.549,204.851l69.658-69.658l9.037,9.719c59.358,63.804,86.775,138.266,66.679,181.069
		l-7.748,16.504L281.549,204.851z"/>
</g>
<path style="fill:#538489;" d="M371.268,356.898c-43.614,0-100.975-28.083-149.7-73.293l-9.745-9.037L281.6,204.8l137.745,137.737
	l-16.384,7.791C393.771,354.688,383.113,356.898,371.268,356.898z"/>
<path style="fill:#8CC0C5;" d="M342.281,126.635c-43.58-40.721-92.809-67.243-135.083-72.764l-44.996-5.879l41.438-18.5
	C228.446,18.415,254.677,12.8,281.6,12.8c45.986,0,90.573,16.708,125.559,47.053l10.377,9.003l-66.219,66.227L342.281,126.635z"/>
<g>
	<path style="fill:#38585B;" d="M136.653,330.359C106.308,295.373,89.6,250.786,89.6,204.8c0-26.914,5.615-53.146,16.691-77.943
		l18.492-41.438l5.879,44.996c5.547,42.419,32.034,91.682,72.678,135.151l8.448,9.045l-66.133,66.133L136.653,330.359z"/>
	<path style="fill:#38585B;" d="M281.6,396.8c-45.986,0-90.573-16.708-125.559-47.053l-10.377-9.003l66.227-66.227l9.037,8.448
		c43.571,40.721,92.809,67.243,135.083,72.764l44.988,5.871l-41.421,18.5C334.763,391.185,308.531,396.8,281.6,396.8z"/>
</g>
<path style="fill:#8CC0C5;" d="M432.529,279.185c-5.547-42.419-32.034-91.682-72.678-135.151l-8.448-9.045l66.133-66.133
	l9.003,10.377C456.892,114.227,473.6,158.814,473.6,204.8c0,26.914-5.615,53.146-16.691,77.943l-18.492,41.438L432.529,279.185z"/>
<path style="fill:#573A32;" d="M268.8,460.151V486.4H166.4c-7.074,0-12.8,5.726-12.8,12.8c0,7.074,5.726,12.8,12.8,12.8h230.4
	c7.074,0,12.8-5.726,12.8-12.8c0-7.074-5.726-12.8-12.8-12.8H294.4v-26.291c70.067-3.499,132.642-34.97,176.785-83.721
	l-36.207-36.207C466.884,304.077,486.4,256.768,486.4,204.8C486.4,91.691,394.709,0,281.6,0c-51.968,0-99.277,19.516-135.39,51.413
	l-36.207-36.207C58.291,62.054,25.6,129.527,25.6,204.8C25.6,341.862,133.402,453.444,268.8,460.151z M460.8,204.8
	c0,25.907-5.641,50.475-15.573,72.73c-5.692-43.486-32.452-95.633-76.015-142.242l47.667-47.667
	C444.151,119.083,460.8,159.991,460.8,204.8z M212.181,292.318c46.601,43.546,98.688,70.426,142.165,76.1
	C332.083,378.359,307.507,384,281.6,384c-44.809,0-85.717-16.649-117.171-43.93L212.181,292.318z M146.33,321.971
	c-27.281-31.454-43.93-72.363-43.93-117.171c0-25.907,5.641-50.475,15.573-72.73c5.692,43.486,32.452,95.633,76.015,142.242
	L146.33,321.971z M230.272,274.227l51.328-51.328l115.866,115.866c-7.202,3.422-15.838,5.333-26.197,5.333
	C330.445,344.098,276.224,316.851,230.272,274.227z M299.648,204.851l51.226-51.226c59.87,64.367,80.299,133.18,64.461,166.912
	L299.648,204.851z M281.6,25.6c44.809,0,85.717,16.649,117.171,43.93l-47.753,47.753c-46.601-43.546-98.688-70.426-142.157-76.1
	C231.117,31.241,255.693,25.6,281.6,25.6z M191.94,65.502c40.815,0,95.036,27.247,140.979,69.879l-51.379,51.379L165.658,70.878
	C172.885,67.43,181.547,65.502,191.94,65.502z M147.823,89.122L263.501,204.8l-51.174,51.174
	C152.491,191.659,132.045,122.88,147.823,89.122z M110.191,51.49l17.971,17.971C96.299,105.566,76.8,152.858,76.8,204.8
	c0,113.109,91.691,204.8,204.8,204.8c51.942,0,99.234-19.499,135.33-51.362l17.971,17.971
	C394.163,412.766,340.531,435.2,281.6,435.2c-127.044,0-230.4-103.356-230.4-230.4C51.2,145.869,73.634,92.237,110.191,51.49z"/>
</svg>
