<svg xmlns="http://www.w3.org/2000/svg" width="300" height="40" fill="currentColor" viewBox="0 0 200 20">
  <g>
    <path d="M37.4,11.88c-.81.18-1.44.36-1.9.56-.46.2-.79.44-.98.71-.19.28-.29.61-.29,1.01,0,.5.12.86.35,1.08.23.22.49.32.75.32.25,0,.52-.08.82-.25s.56-.39.78-.68c.13-.16.25-.4.37-.7.12-.3.17-.67.17-1.09,0-.14,0-.3-.02-.47-.01-.18-.03-.34-.05-.49Z" />
    <path d="M21.38,11.88c-.81.18-1.44.36-1.9.56-.46.2-.79.44-.98.71-.19.28-.29.61-.29,1.01,0,.5.12.86.35,1.08.23.22.49.32.75.32.25,0,.52-.08.82-.25s.56-.39.78-.68c.13-.16.25-.4.37-.7.12-.3.17-.67.17-1.09,0-.14,0-.3-.02-.47-.01-.18-.03-.34-.05-.49Z" />
    <path d="M10.84,9.09c-.17-.28-.39-.5-.66-.65-.26-.15-.58-.23-.96-.23-.28,0-.57.06-.86.18-.29.12-.52.33-.68.63-.15.28-.27.67-.34,1.16-.08.49-.11,1.03-.11,1.61,0,.68.05,1.27.14,1.77s.21.89.35,1.16c.16.29.39.52.67.69.29.17.59.26.92.26.27,0,.54-.06.82-.18s.51-.33.7-.62c.19-.3.33-.7.44-1.2.1-.5.16-1.05.16-1.65,0-.68-.06-1.27-.18-1.77s-.26-.88-.42-1.14Z" />
    <path d="M.99,1.69v17.19h45.14V1.69H.99ZM15.01,16.66l-3.24.18-.14-1.44c-.36.54-.77.91-1.23,1.12-.46.21-.99.31-1.6.31-.64,0-1.18-.1-1.62-.29-.44-.19-.81-.46-1.11-.81-.36-.41-.65-.94-.88-1.6-.22-.66-.33-1.39-.33-2.18s.11-1.49.32-2.16c.22-.67.51-1.21.87-1.62.34-.37.74-.66,1.21-.85.47-.19.99-.29,1.58-.29.55,0,1.03.1,1.45.3.42.2.8.55,1.14,1.07v-4.08l-1.35-.33v-.98h3.58v12.35l1.35.33v.98ZM25.08,16.33c-1.08.34-1.89.51-2.44.51-.39,0-.64-.13-.77-.38-.13-.26-.19-.77-.19-1.53h-.07c-.36.6-.84,1.06-1.44,1.4-.6.34-1.24.51-1.93.51-.74,0-1.31-.2-1.74-.6-.42-.4-.63-.94-.63-1.65,0-.97.44-1.72,1.33-2.25s2.28-.94,4.19-1.24c-.05-.58-.11-1.03-.19-1.35-.08-.31-.19-.58-.32-.81-.15-.27-.34-.48-.56-.65-.22-.16-.5-.25-.84-.25-.25,0-.47.05-.67.14-.2.09-.34.22-.41.38.16.08.28.21.34.38s.1.33.1.46c0,.29-.13.55-.39.78-.26.23-.57.34-.93.34s-.65-.12-.86-.36c-.21-.24-.32-.54-.32-.9,0-.48.17-.89.51-1.23.34-.34.77-.59,1.3-.77s1.06-.26,1.6-.26,1.04.08,1.48.24c.44.16.79.35,1.06.59.92.82,1.39,2.11,1.39,3.89v2.28c0,.57.04.97.11,1.19.08.22.24.33.5.33h.79v.79ZM31.23,8.34h-2.24v5.73c0,.4,0,.67.02.82.01.15.04.27.07.36.03.07.1.12.19.16.09.04.25.05.46.05h1.23v.77c-.68.21-1.28.36-1.8.46-.52.1-.93.15-1.24.15-.53,0-.87-.22-1.02-.65-.05-.14-.08-.32-.1-.54-.02-.22-.03-.55-.03-.98v-6.32h-1.7v-.89l1.72-.25.21-2.17,2-.28v2.45h2.24v1.14ZM41.1,16.33c-1.08.34-1.89.51-2.44.51-.39,0-.64-.13-.77-.38-.13-.26-.19-.77-.19-1.53h-.07c-.36.6-.84,1.06-1.44,1.4-.6.34-1.24.51-1.93.51-.74,0-1.31-.2-1.74-.6-.42-.4-.63-.94-.63-1.65,0-.97.44-1.72,1.33-2.25s2.28-.94,4.19-1.24c-.05-.58-.11-1.03-.19-1.35-.08-.31-.19-.58-.32-.81-.15-.27-.34-.48-.56-.65-.22-.16-.5-.25-.84-.25-.25,0-.47.05-.67.14-.2.09-.34.22-.41.38.16.08.28.21.34.38s.1.33.1.46c0,.29-.13.55-.39.78-.26.23-.57.34-.93.34s-.65-.12-.86-.36c-.21-.24-.32-.54-.32-.9,0-.48.17-.89.51-1.23.34-.34.77-.59,1.3-.77s1.06-.26,1.6-.26,1.04.08,1.48.24c.44.16.79.35,1.06.59.92.82,1.39,2.11,1.39,3.89v2.28c0,.57.04.97.11,1.19.08.22.24.33.5.33h.79v.79Z" />
  </g>
  <g>
    <path d="M48.4,15.7c0-.35.1-.63.3-.83s.47-.31.81-.31.61.1.81.32c.2.21.31.48.31.82s-.1.61-.31.81c-.2.2-.48.3-.81.3s-.62-.1-.82-.29c-.19-.19-.29-.46-.29-.81Z" />
    <path d="M52.42,11.98c0-.76.1-1.48.3-2.17.2-.69.5-1.25.89-1.68.34-.37.74-.66,1.21-.85.47-.19,1-.29,1.61-.29.51,0,.98.1,1.41.3.43.2.81.55,1.15,1.07v-4.34l-1.35-.33v-.72h3.05v12.61l1.35.33v.72l-2.72.17-.14-1.44c-.36.54-.77.91-1.23,1.12-.46.21-.96.31-1.53.31-.6,0-1.13-.09-1.61-.26-.48-.17-.88-.46-1.19-.84-.37-.46-.67-1-.89-1.64-.22-.64-.32-1.33-.32-2.08ZM58.99,11.97c0-.71-.05-1.33-.16-1.86-.1-.53-.26-.95-.46-1.28-.19-.3-.42-.53-.68-.69-.27-.16-.62-.24-1.07-.24-.4,0-.75.07-1.04.21-.3.14-.54.34-.73.61-.21.29-.36.71-.46,1.25-.09.54-.14,1.17-.14,1.87s.05,1.31.16,1.83.26.95.46,1.29c.2.29.44.52.71.68.27.16.63.25,1.06.25.41,0,.76-.07,1.06-.2.3-.13.52-.34.68-.6.2-.33.35-.75.46-1.27.11-.52.16-1.14.16-1.85Z" />
    <path d="M71.19,12h-6.12c0,.85.12,1.56.35,2.12.23.54.57.92,1,1.16.43.23.9.35,1.4.35.55,0,1.05-.11,1.51-.34.46-.23.86-.54,1.23-.94l.56.42c-.41.56-.91,1.04-1.49,1.44-.58.4-1.34.59-2.26.59-.81,0-1.52-.17-2.14-.52-.62-.34-1.09-.85-1.42-1.51-.18-.36-.3-.76-.39-1.21-.08-.44-.12-.92-.12-1.42,0-1.63.38-2.9,1.13-3.8.75-.9,1.78-1.35,3.08-1.35,1.19,0,2.11.37,2.76,1.11.65.74.97,1.77.97,3.07,0,.12,0,.23,0,.32,0,.1-.02.27-.04.5ZM67.41,7.94c-1.4,0-2.17,1.07-2.31,3.21h4.38v-.58c0-.84-.18-1.49-.53-1.94s-.87-.68-1.53-.68Z" />
    <path d="M75.51,18.73l1.7.33v.72h-4.75v-.72l1.35-.33v-10.51l-1.35-.33v-.72h2.52l.26,1.35c.37-.58.8-.98,1.27-1.2.47-.22,1.01-.32,1.6-.32s1.14.09,1.62.26c.48.17.88.46,1.18.84.35.44.63.98.83,1.6.2.62.31,1.3.31,2.02s-.11,1.45-.34,2.11c-.23.66-.53,1.21-.92,1.66-.65.76-1.6,1.14-2.82,1.14-.5,0-.96-.1-1.36-.29s-.77-.53-1.11-1.01v3.4ZM75.49,11.74c0,.69.05,1.29.16,1.8.1.51.26.93.46,1.24.19.29.42.52.69.68.27.16.63.25,1.06.25.4,0,.75-.07,1.04-.22.3-.15.54-.35.73-.6.21-.29.36-.7.46-1.23.09-.53.14-1.13.14-1.8s-.05-1.28-.16-1.79c-.11-.5-.26-.92-.46-1.24-.19-.3-.42-.53-.69-.69-.27-.16-.63-.24-1.08-.24-.4,0-.75.07-1.04.2-.3.13-.53.34-.69.6-.19.31-.34.73-.45,1.23-.11.51-.17,1.11-.17,1.79Z" />
    <path d="M83.53,14.58c0-.91.43-1.63,1.28-2.15.85-.53,2.27-.93,4.24-1.23-.05-.69-.11-1.23-.19-1.61-.08-.38-.19-.69-.32-.93-.16-.3-.39-.53-.68-.67-.29-.15-.61-.22-.95-.22s-.62.06-.89.18c-.26.12-.44.27-.53.47.16.12.28.27.36.46.08.19.11.36.11.53,0,.29-.1.52-.29.69-.19.17-.43.25-.71.25s-.51-.09-.69-.28c-.18-.19-.27-.45-.27-.79,0-.49.17-.91.51-1.24.34-.34.77-.6,1.29-.77s1.04-.26,1.57-.26c.48,0,.92.07,1.32.22.4.15.75.36,1.03.64.72.72,1.09,2.01,1.09,3.85v2.54c0,.57.04.97.11,1.19.08.22.24.33.5.33h.79v.53c-.84.34-1.5.51-1.96.51-.36,0-.6-.13-.73-.39-.12-.26-.18-.77-.18-1.52h-.07c-.36.6-.84,1.06-1.44,1.4-.6.34-1.24.51-1.93.51-.74,0-1.31-.2-1.74-.59-.42-.4-.63-.94-.63-1.63ZM86.64,15.78c.33,0,.67-.08,1.03-.25.36-.17.66-.41.9-.71.19-.23.32-.51.41-.83.09-.32.13-.7.13-1.13,0-.2,0-.39-.02-.59-.01-.19-.03-.38-.05-.55-.95.19-1.69.39-2.23.6s-.92.47-1.14.77c-.22.3-.33.67-.33,1.11,0,.5.11.89.34,1.17s.55.41.96.41Z" />
    <path d="M98.19,8.18s-.1-.06-.17-.08c-.06-.02-.13-.03-.18-.03-.14,0-.29.06-.46.19-.16.13-.32.3-.47.52-.15.22-.29.46-.42.75-.16.4-.29.83-.39,1.3-.09.47-.14.96-.14,1.46v3.28l1.89.33v.72h-4.94v-.72l1.35-.33v-7.36l-1.35-.33v-.72h2.52l.39,2.31h.07c.27-.79.63-1.41,1.09-1.84.46-.43.96-.65,1.51-.65.46,0,.84.14,1.14.43.3.29.46.67.46,1.15,0,.35-.09.63-.27.83-.18.2-.42.31-.73.31s-.54-.1-.72-.29-.26-.45-.26-.76c0-.07,0-.14.02-.2.01-.06.03-.16.07-.27Z" />
    <path d="M100.47,8.04v-.63l1.7-.25.23-2.21,1.47-.21v2.42h2.24v.88h-2.24v6.25c0,.4,0,.67.02.81.01.15.04.27.07.36.04.08.1.14.19.17.09.03.25.04.46.04h1.23v.51c-.56.21-1.05.36-1.48.46-.43.1-.77.15-1.03.15-.53,0-.87-.22-1.02-.65-.05-.14-.08-.32-.1-.54s-.04-.55-.04-.98v-6.58h-1.7Z" />
    <path d="M115,12h-6.12c0,.85.12,1.56.35,2.12.23.54.57.92,1,1.16.43.23.9.35,1.4.35.55,0,1.05-.11,1.51-.34.46-.23.86-.54,1.23-.94l.56.42c-.41.56-.91,1.04-1.49,1.44-.58.4-1.34.59-2.26.59-.81,0-1.52-.17-2.14-.52-.62-.34-1.09-.85-1.42-1.51-.18-.36-.3-.76-.39-1.21-.08-.44-.12-.92-.12-1.42,0-1.63.38-2.9,1.13-3.8.75-.9,1.78-1.35,3.08-1.35,1.19,0,2.11.37,2.76,1.11.65.74.97,1.77.97,3.07,0,.12,0,.23,0,.32,0,.1-.02.27-.04.5ZM111.22,7.94c-1.4,0-2.17,1.07-2.31,3.21h4.38v-.58c0-.84-.18-1.49-.53-1.94s-.87-.68-1.53-.68Z" />
    <path d="M117.81,15.57v-7.36l-1.35-.33v-.72h2.52l.39,1.75h.07c.34-.58.79-1.05,1.36-1.4s1.17-.53,1.81-.53c.48,0,.91.09,1.28.27.37.18.65.41.82.67.19.29.34.68.46,1.16.37-.65.86-1.17,1.46-1.54s1.23-.56,1.91-.56c.47,0,.89.09,1.26.27.37.18.66.43.86.74.14.22.25.51.33.86.08.35.14.8.18,1.36.03.55.05,1.26.05,2.11v3.24l1.35.33v.72h-4.23v-.72l1.17-.33v-3.91c0-.76-.02-1.33-.06-1.7-.04-.37-.11-.67-.22-.88-.14-.28-.34-.49-.59-.64-.25-.15-.55-.22-.89-.22-.29,0-.58.06-.86.18-.28.12-.53.27-.75.47-.26.23-.45.51-.57.82-.12.32-.2.71-.22,1.19v4.68l1.17.33v.72h-4.05v-.72l1.17-.33v-3.91c0-.76-.02-1.33-.06-1.7s-.11-.67-.22-.88c-.14-.28-.34-.49-.59-.64-.25-.15-.55-.22-.89-.22-.29,0-.58.06-.86.18-.28.12-.53.27-.75.47-.26.23-.45.51-.57.82s-.2.71-.22,1.19v4.68l1.17.33v.72h-4.23v-.72l1.35-.33Z" />
    <path d="M141.64,12h-6.12c0,.85.12,1.56.35,2.12.23.54.57.92,1,1.16.43.23.9.35,1.4.35.55,0,1.05-.11,1.51-.34.46-.23.86-.54,1.23-.94l.56.42c-.41.56-.91,1.04-1.49,1.44-.58.4-1.34.59-2.26.59-.81,0-1.52-.17-2.14-.52-.62-.34-1.09-.85-1.42-1.51-.18-.36-.3-.76-.39-1.21-.08-.44-.12-.92-.12-1.42,0-1.63.38-2.9,1.13-3.8.75-.9,1.78-1.35,3.08-1.35,1.19,0,2.11.37,2.76,1.11.65.74.97,1.77.97,3.07,0,.12,0,.23,0,.32,0,.1-.02.27-.04.5ZM137.85,7.94c-1.4,0-2.17,1.07-2.31,3.21h4.38v-.58c0-.84-.18-1.49-.53-1.94s-.87-.68-1.53-.68Z" />
    <path d="M144.44,15.57v-7.36l-1.35-.33v-.72h2.52l.39,1.75h.07c.35-.6.82-1.07,1.42-1.41.6-.34,1.23-.52,1.91-.52.97,0,1.69.32,2.16.95.23.33.4.79.5,1.37.1.59.15,1.39.15,2.39v3.87l1.35.33v.72h-4.23v-.72l1.17-.33v-3.91c0-.76-.02-1.33-.06-1.7s-.11-.67-.22-.88c-.14-.28-.34-.49-.6-.64-.26-.15-.58-.22-.94-.22-.68,0-1.26.22-1.75.65-.48.43-.74,1.1-.79,2.01v4.68l1.17.33v.72h-4.23v-.72l1.35-.33Z" />
    <path d="M154.1,8.04v-.63l1.7-.25.23-2.21,1.47-.21v2.42h2.24v.88h-2.24v6.25c0,.4,0,.67.02.81.01.15.04.27.07.36.04.08.1.14.19.17.09.03.25.04.46.04h1.23v.51c-.56.21-1.05.36-1.48.46-.43.1-.77.15-1.03.15-.53,0-.87-.22-1.02-.65-.05-.14-.08-.32-.1-.54s-.04-.55-.04-.98v-6.58h-1.7Z" />
    <path d="M162.94,15.57V5.54h-2.23v-.89c.28,0,.61-.03.98-.1.37-.06.73-.15,1.06-.27.33-.12.56-.26.69-.44h1.19v11.73l1.88.33v.72h-5.8v-.72l2.23-.33Z" />
    <path d="M175.45,6.62c0,.65-.17,1.26-.5,1.81s-.8,1.01-1.41,1.38c.86.47,1.5.97,1.89,1.5s.6,1.15.6,1.85-.18,1.36-.55,1.91-.88.97-1.53,1.28-1.42.46-2.3.46c-1.19,0-2.12-.29-2.79-.88-.67-.58-1-1.39-1-2.42,0-.75.19-1.4.57-1.96s.98-1.07,1.8-1.54c-.64-.47-1.1-.92-1.38-1.37-.27-.44-.41-.97-.41-1.58,0-1,.32-1.79.97-2.37.65-.58,1.54-.87,2.67-.87,1.05,0,1.88.25,2.47.74s.89,1.18.89,2.06ZM170.95,10.46c-.64.37-1.11.81-1.41,1.3s-.45,1.07-.45,1.73c0,.79.21,1.39.64,1.78.43.39,1.07.59,1.94.59s1.52-.18,1.97-.54c.45-.36.67-.9.67-1.61,0-.37-.1-.72-.3-1.03s-.54-.65-1.03-1c-.49-.35-1.17-.75-2.03-1.21ZM172.79,9.36c.5-.25.9-.61,1.18-1.09.29-.48.43-1,.43-1.58,0-.64-.19-1.12-.57-1.44s-.95-.48-1.71-.48-1.27.15-1.64.45-.55.75-.55,1.36c0,.55.21,1.03.64,1.44.43.42,1.17.86,2.22,1.34Z" />
    <path d="M177.96,15.7c0-.35.1-.63.3-.83s.47-.31.81-.31.61.1.81.32c.2.21.31.48.31.82s-.1.61-.31.81c-.2.2-.48.3-.81.3s-.62-.1-.82-.29c-.19-.19-.29-.46-.29-.81Z" />
    <path d="M181.49,8.04v-.63l1.7-.25v-.17c0-1.34.29-2.38.88-3.11s1.37-1.09,2.37-1.09c.69,0,1.24.17,1.66.5.41.33.62.76.62,1.27,0,.33-.08.58-.25.74-.16.17-.39.25-.67.25s-.48-.08-.65-.23c-.16-.15-.25-.37-.25-.65,0-.3.09-.61.28-.91-.2-.21-.47-.32-.81-.32-.27,0-.5.06-.7.18-.26.15-.44.37-.55.65-.11.28-.18.59-.2.94s-.04.7-.04,1.08v.88h2.24v.88h-2.24v7.53l1.89.33v.72h-4.94v-.72l1.35-.33v-7.53h-1.7Z" />
    <path d="M193.44,8.18s-.1-.06-.17-.08c-.06-.02-.13-.03-.18-.03-.14,0-.29.06-.46.19-.16.13-.32.3-.47.52-.15.22-.29.46-.42.75-.16.4-.29.83-.39,1.3-.09.47-.14.96-.14,1.46v3.28l1.89.33v.72h-4.94v-.72l1.35-.33v-7.36l-1.35-.33v-.72h2.52l.39,2.31h.07c.27-.79.63-1.41,1.09-1.84.46-.43.96-.65,1.51-.65.46,0,.84.14,1.14.43.3.29.46.67.46,1.15,0,.35-.09.63-.27.83-.18.2-.42.31-.73.31s-.54-.1-.72-.29-.26-.45-.26-.76c0-.07,0-.14.02-.2.01-.06.03-.16.07-.27Z" />
  </g>
</svg>
